PathFileType	4	(X/Y/Z)	C:/Users/opensim2020/Desktop/walking_exp_matlab/subject01_walking15_straight_04.trc																																																																																																																															
DataRate	CameraRate	NumFrames	NumMarkers	Units	OrigDataRate	OrigDataStartFrame	OrigNumFrames																																																																																																																											
100	100	5	43	mm	100	2081	105																																																																																																																											
Frame#	Time	LFHD			RFHD			LBHD			RBHD			C7			T10			CLAV			STRN			RBAK			LSHO			LUPA			LELB			LFRM			LWRA			LWRB			LFIN			RSHO			RUPA			RELB			RFRM			RWRA			RWRB			RFIN			LASI			RASI			LPSI			RPSI			LTHI			LKNE			LTIB			LANK			LHEE			LTOE			RTHI			RKNE			RTIB			RANK			RHEE			RTOE			*39			*40			*41			*42		
		X1	Y1	Z1	X2	Y2	Z2	X3	Y3	Z3	X4	Y4	Z4	X5	Y5	Z5	X6	Y6	Z6	X7	Y7	Z7	X8	Y8	Z8	X9	Y9	Z9	X10	Y10	Z10	X11	Y11	Z11	X12	Y12	Z12	X13	Y13	Z13	X14	Y14	Z14	X15	Y15	Z15	X16	Y16	Z16	X17	Y17	Z17	X18	Y18	Z18	X19	Y19	Z19	X20	Y20	Z20	X21	Y21	Z21	X22	Y22	Z22	X23	Y23	Z23	X24	Y24	Z24	X25	Y25	Z25	X26	Y26	Z26	X27	Y27	Z27	X28	Y28	Z28	X29	Y29	Z29	X30	Y30	Z30	X31	Y31	Z31	X32	Y32	Z32	X33	Y33	Z33	X34	Y34	Z34	X35	Y35	Z35	X36	Y36	Z36	X37	Y37	Z37	X38	Y38	Z38	X39	Y39	Z39	X40	Y40	Z40	X41	Y41	Z41	X42	Y42	Z42	X43	Y43	Z43
																																																																																																																																		
1	0	-848.51331	1657.62048	999.65375	-814.38654	1666.22754	1108.71741	-962.57281	1621.36511	1031.23535	-930.19696	1629.64771	1147.35547	-1005.08435	1432.94202	1070.14014	-1066.65466	1143.55664	1083.52917	-865.38379	1356.60205	1068.74207	-835.96332	1197.63953	1063.901	-1073.92615	1248.85364	1152.77051	-927.02972	1398.78748	910.76947	-986.54407	1224.09875	822.19135	-1021.10535	1077.83997	817.31396	-996.43884	966.6463	788.42236	-931.85419	842.047	798.96844	-988.12897	845.56995	778.0235	-951.33337	773.98926	757.83765	-924.96466	1398.99695	1218.32275	-1003.69843	1212.19348	1325.59973	-1004.92853	1083.73547	1337.42761	-943.30267	976.8078	1367.78796	-827.04962	897.46826	1352.39832	-869.32666	881.35449	1386.83813	-804.99982	827.75293	1397.42651	-902.87201	933.26373	978.51941	-908.5014	931.01587	1196.49536	-1088.54419	940.47919	1025.84424	-1091.8573	950.36523	1169.17834	-828.04144	623.83472	915.87549	-794.12476	493.28049	936.80981	-842.28625	309.13882	942.08575	-864.22388	92.99445	1006.61664	-899.83405	65.53944	1069.29492	-727.25989	56.66788	986.97253	-1019.66724	607.04456	1258.62195	-1044.58704	448.59213	1240.54761	-1132.24512	295.33133	1251.60669	-1197.41443	96.69936	1212.32446	-1250.82312	65.32054	1162.40332	-1065.91638	40.00238	1222.73938	-827.8512	1699.67249	1087.02502	-1973.07605	1023.44885	3101.80591	-2012.48254	1021.95135	3140.66089	NaN	NaN	NaN
2	0.01	-835.25995	1656.38306	998.67902	-800.55267	1665.2561	1107.65039	-949.02545	1620.0188	1031.02429	-916.1546	1628.5824	1146.97339	-991.02728	1431.73462	1070.41382	-1052.71875	1142.30249	1084.33838	-851.31134	1355.27197	1068.36047	-821.98682	1196.27612	1063.8645	-1059.59802	1247.71985	1153.66821	-913.9079	1397.14929	910.66797	-975.24738	1222.75806	822.70428	-1011.21265	1077.19763	817.84711	-989.94543	965.86237	787.9436	-928.30115	839.56073	796.76459	-984.85773	844.46899	777.19391	-950.47687	771.94934	756.11163	-910.27795	1398.11292	1218.20911	-987.6955	1211.39575	1326.37256	-988.23755	1082.97754	1338.93396	-923.25543	977.80756	1368.49731	-804.69775	902.49823	1351.87964	-846.03882	884.8866	1386.70984	-779.76703	833.46191	1396.48108	-888.90631	931.82782	979.30939	-894.86145	929.62781	1197.35425	-1074.80615	939.16772	1026.24561	-1078.22571	949.87396	1169.19482	-814.73187	622.5896	915.36298	-780.68097	492.53104	937.80383	-818.93085	306.95023	941.08514	-824.21216	88.19002	1003.34937	-858.56726	58.22327	1065.72632	-684.74646	60.23779	984.69299	-1010.93262	607.07007	1259.17627	-1038.85156	449.03918	1241.0813	-1129.11511	296.90323	1251.70068	-1196.24622	98.99345	1212.59778	-1249.99841	68.62677	1162.60461	-1065.75452	39.95654	1222.87097	-814.22955	1698.67017	1085.97021	-1973.08569	1023.62988	3101.98389	-2012.51831	1022.12439	3140.58154	NaN	NaN	NaN
3	0.02	-821.8772	1655.10132	997.67896	-786.75647	1664.19531	1106.5481	-935.57068	1618.68872	1030.55884	-902.14545	1627.41125	1146.43408	-976.96729	1430.49609	1070.51221	-1038.79407	1141.01599	1084.85486	-837.23596	1353.91589	1067.89661	-807.89886	1194.86145	1063.79761	-1045.19104	1246.44971	1154.26868	-900.58807	1395.44604	910.41211	-963.52734	1221.37781	822.96045	-1001.32104	1076.67896	818.21954	-983.16022	965.16577	787.63751	-924.89325	837.1485	794.88293	-981.17401	843.67236	776.24084	-949.21289	770.13757	754.52246	-895.57959	1397.08545	1217.80286	-971.78198	1210.60291	1326.98608	-971.89349	1082.25073	1340.16858	-903.56702	978.96411	1368.95776	-782.95288	907.39203	1351.07397	-823.34631	888.39655	1386.30127	-755.26227	839.20844	1395.43628	-874.45776	930.297	979.97021	-881.07733	928.09692	1198.02063	-1060.69336	937.94995	1026.33313	-1064.52478	949.56952	1169.05249	-802.29712	620.70551	915.10638	-767.57544	491.38022	938.89856	-795.90979	304.8786	940.25934	-785.47742	84.90125	999.8512	-818.55151	52.30249	1061.77051	-644.11102	65.78764	982.24579	-1001.8714	607.31439	1259.77893	-1032.40662	449.46716	1241.55859	-1125.12048	298.99634	1252.08301	-1194.9209	101.662	1212.98206	-1248.96301	72.361	1162.7395	-1065.53442	40.02218	1223.06091	-800.52423	1697.54883	1084.83472	-1973.26245	1023.43158	3101.93555	-2012.50989	1022.08795	3140.74976	NaN	NaN	NaN
4	0.03	-808.38037	1653.66577	996.59644	-772.92603	1663.01855	1105.19299	-921.93903	1617.14612	1029.8623	-888.1087	1626.11316	1145.55432	-962.91266	1428.99597	1070.34973	-1024.95471	1139.79126	1085.03308	-823.13629	1352.44287	1067.2467	-793.758	1193.39514	1063.52356	-1030.8385	1245.14636	1154.63257	-887.09753	1393.70923	909.9953	-951.58423	1219.91626	823.00342	-990.66211	1075.89929	818.86591	-975.78571	964.46057	787.38617	-920.61853	834.89911	793.17737	-976.90289	842.86279	775.35956	-947.15466	768.29327	753.37482	-880.90802	1396.01257	1217.38623	-956.03595	1209.77368	1327.22644	-955.26208	1081.37878	1341.02441	-884.18048	980.04681	1369.12671	-761.71716	912.21179	1350.14429	-801.27228	891.86572	1385.51721	-731.50348	844.92401	1394.26489	-859.81	928.71222	980.69971	-867.32166	926.45447	1198.6062	-1046.22339	936.78632	1026.21216	-1050.43567	949.38818	1168.77991	-790.65045	618.23682	914.85492	-754.39319	490.06857	939.78876	-773.02136	303.04199	939.13403	-748.7099	82.9827	996.7395	-780.32666	47.6206	1057.9137	-606.22693	72.59461	979.94202	-992.3385	607.6012	1260.49146	-1025.29016	449.98175	1242.229	-1120.61731	300.84683	1252.2334	-1193.37817	104.53369	1213.35278	-1247.69946	76.42746	1162.93982	-1065.22754	40.0122	1223.151	-786.83862	1696.28882	1083.54651	-1973.21692	1023.91083	3101.86426	-2012.60071	1022.14832	3140.69946	NaN	NaN	NaN
5	0.04	-794.93085	1652.20483	995.34039	-759.07037	1661.81409	1103.8429	-908.31104	1615.61768	1029.06726	-874.1474	1624.85315	1144.7124	-948.83844	1427.52515	1069.99487	-1010.74115	1138.38647	1084.89246	-808.93878	1351.05383	1066.802	-779.55151	1191.98083	1063.28442	-1016.41528	1243.79468	1154.7301	-873.43939	1391.92908	909.39032	-939.29785	1218.39478	822.93616	-979.82532	1075.22095	819.28632	-967.91125	963.74146	787.09747	-915.88202	832.6507	791.75507	-972.11591	842.21521	774.63562	-944.73767	766.81622	752.24805	-866.32703	1394.91138	1216.79089	-940.51196	1208.98523	1327.37964	-938.94189	1080.57141	1341.57275	-865.16205	980.98297	1369.03381	-741.20728	916.7879	1348.92822	-779.73657	895.25775	1384.60522	-708.52374	850.49469	1392.95752	-844.80725	927.2417	981.27582	-853.51135	924.73053	1198.87988	-1031.50256	935.72241	1025.97009	-1035.83813	949.11279	1168.30872	-778.81506	615.36786	914.24384	-740.71497	488.64969	940.36224	-749.94043	301.66718	937.71014	-714.57141	82.39433	993.85693	-745.14392	44.46339	1054.20862	-571.52338	79.04758	977.54492	-982.30072	607.81824	1261.17981	-1017.39404	450.31033	1242.84045	-1115.44312	302.7778	1252.43896	-1191.5575	107.64854	1213.7959	-1246.41821	80.92433	1163.12463	-1064.97327	40.09461	1223.37024	-773.18433	1694.79529	1081.99133	-1973.20557	1023.41425	3101.93457	-2012.5675	1022.14563	3140.72388	NaN	NaN	NaN
